<?xml version="1.0" encoding="UTF-8" standalone="no"?>
<svg
   xmlns:dc="http://purl.org/dc/elements/1.1/"
   xmlns:cc="http://creativecommons.org/ns#"
   xmlns:rdf="http://www.w3.org/1999/02/22-rdf-syntax-ns#"
   xmlns:svg="http://www.w3.org/2000/svg"
   xmlns="http://www.w3.org/2000/svg"
   xmlns:sodipodi="http://sodipodi.sourceforge.net/DTD/sodipodi-0.dtd"
   xmlns:inkscape="http://www.inkscape.org/namespaces/inkscape"
   width="187.39101"
   height="64"
   version="1"
   id="svg20"
   sodipodi:docname="banner.svg"
   inkscape:version="1.0.2 (e86c870879, 2021-01-15)">
  <metadata
     id="metadata26">
    <rdf:RDF>
      <cc:Work
         rdf:about="">
        <dc:format>image/svg+xml</dc:format>
        <dc:type
           rdf:resource="http://purl.org/dc/dcmitype/StillImage" />
        <dc:title />
      </cc:Work>
    </rdf:RDF>
  </metadata>
  <defs
     id="defs24" />
  <sodipodi:namedview
     pagecolor="#ffffff"
     bordercolor="#666666"
     borderopacity="1"
     objecttolerance="10"
     gridtolerance="10"
     guidetolerance="10"
     inkscape:pageopacity="0"
     inkscape:pageshadow="2"
     inkscape:window-width="1916"
     inkscape:window-height="1016"
     id="namedview22"
     showgrid="false"
     inkscape:zoom="5.0546875"
     inkscape:cx="91.018052"
     inkscape:cy="61.9153"
     inkscape:window-x="0"
     inkscape:window-y="0"
     inkscape:window-maximized="0"
     inkscape:current-layer="svg20"
     inkscape:document-rotation="0" />
  <g
     id="g1550">
    <path
       style="opacity:0.2"
       d="m 30.600317,5.0000019 c -3.1024,0 -5.6,2.4975999 -5.6,5.6000001 v 2.625 a 21,21 0 0 0 -6.622656,3.825391 l -2.275,-1.3125 c -2.686757,-1.5512 -6.099581,-0.635977 -7.6507811,2.050781 l -1.4,2.422656 c -1.5512,2.686758 -0.635976,6.099581 2.050781,7.650781 l 2.2640631,1.307032 a 21,21 0 0 0 -0.366407,3.830859 21,21 0 0 0 0.366407,3.830859 l -2.2640631,1.307032 c -2.686757,1.5512 -3.601981,4.964023 -2.050781,7.650781 l 1.4,2.422656 c 1.5512001,2.686758 4.9640241,3.601981 7.6507811,2.050781 l 2.258593,-1.304296 a 21,21 0 0 0 13.639063,5.042187 21,21 0 0 0 13.622657,-5.050391 l 2.275,1.3125 c 2.686757,1.5512 6.09958,0.635977 7.65078,-2.050781 l 1.4,-2.422656 c 1.5512,-2.686758 0.635977,-6.099581 -2.05078,-7.650781 l -2.264063,-1.307032 a 21,21 0 0 0 0.366406,-3.830859 21,21 0 0 0 -0.366406,-3.830859 l 2.264063,-1.307032 c 2.686757,-1.5512 3.60198,-4.964023 2.05078,-7.650781 l -1.4,-2.422656 c -1.5512,-2.686758 -4.964023,-3.601981 -7.65078,-2.050781 l -2.258594,1.304296 a 21,21 0 0 0 -6.639063,-3.814453 v -2.627734 c 0,-3.1024002 -2.4976,-5.6000001 -5.6,-5.6000001 z"
       id="path2-6" />
    <path
       style="fill:#1ed760;fill-opacity:1"
       d="m 30.600317,4 c -3.1024,0 -5.6,2.4975998 -5.6,5.5999998 V 12.225 a 21,21 0 0 0 -6.622656,3.825391 l -2.275,-1.3125 c -2.686757,-1.5512 -6.099581,-0.635977 -7.6507811,2.050781 l -1.4,2.422656 c -1.5512,2.686758 -0.635976,6.099581 2.050781,7.650781 l 2.2640631,1.307032 A 21,21 0 0 0 11.000317,32 a 21,21 0 0 0 0.366407,3.830859 l -2.2640631,1.307032 c -2.686757,1.5512 -3.601981,4.964023 -2.050781,7.650781 l 1.4,2.422656 c 1.5512001,2.686758 4.9640241,3.601981 7.6507811,2.050781 l 2.258593,-1.304296 A 21,21 0 0 0 32.000317,53 21,21 0 0 0 45.622974,47.949609 l 2.275,1.3125 c 2.686757,1.5512 6.09958,0.635977 7.65078,-2.050781 l 1.4,-2.422656 c 1.5512,-2.686758 0.635977,-6.099581 -2.05078,-7.650781 L 52.633911,35.830859 A 21,21 0 0 0 53.000317,32 21,21 0 0 0 52.633911,28.169141 l 2.264063,-1.307032 c 2.686757,-1.5512 3.60198,-4.964023 2.05078,-7.650781 l -1.4,-2.422656 c -1.5512,-2.686758 -4.964023,-3.601981 -7.65078,-2.050781 L 45.63938,16.042187 A 21,21 0 0 0 39.000317,12.227734 V 9.5999998 C 39.000317,6.4975998 36.502717,4 33.400317,4 Z"
       id="path6-2" />
    <rect
       style="opacity:0.2"
       width="14"
       height="22.4"
       x="25"
       y="38.599812"
       rx="5.5999999"
       ry="5.5999999"
       id="rect4" />
    <rect
       style="fill:#e4e4e4"
       width="14"
       height="22.4"
       x="25"
       y="37.599812"
       rx="5.5999999"
       ry="5.5999999"
       id="rect8" />
    <path
       style="opacity:0.1;fill:#ffffff"
       d="m 30.599926,4 c -3.1024,0 -5.599609,2.4972098 -5.599609,5.5996098 V 10.599609 C 25.000317,7.4972098 27.497526,5 30.599926,5 h 2.800782 c 3.1024,0 5.599609,2.4972098 5.599609,5.599609 V 9.5996098 C 39.000317,6.4972098 36.503108,4 33.400708,4 Z m -5.599609,8.224609 a 21,21 0 0 0 -6.623047,3.826172 l -2.275391,-1.3125 c -2.686757,-1.5512 -6.09919,-0.635976 -7.6503901,2.050781 l -1.400391,2.421876 c -0.603356,1.045044 -0.828609,2.200037 -0.726562,3.3125 0.06974,-0.789767 0.302707,-1.578362 0.726562,-2.3125 l 1.400391,-2.421876 c 1.5512001,-2.686757 4.9636331,-3.601981 7.6503901,-2.050781 l 2.275391,1.3125 a 21,21 0 0 1 6.623047,-3.826172 z m 14,0.0039 v 1 a 21,21 0 0 1 6.638672,3.814453 l 2.259766,-1.304688 c 2.686757,-1.5512 6.09919,-0.635977 7.65039,2.050781 l 1.400391,2.421876 c 0.423855,0.734138 0.656827,1.522733 0.726562,2.3125 0.102046,-1.112463 -0.123206,-2.267456 -0.726562,-3.3125 l -1.400391,-2.421876 c -1.5512,-2.686758 -4.963633,-3.601981 -7.65039,-2.050781 l -2.259766,1.304688 A 21,21 0 0 0 39.000317,12.228516 Z M 52.767895,29.09179 52.633129,29.16992 A 21,21 0 0 1 52.974926,32.541016 21,21 0 0 0 53.000316,32 21,21 0 0 0 52.767894,29.091797 Z m -41.529297,0.0039 A 21,21 0 0 0 11.000317,32 a 21,21 0 0 0 0.02539,0.458984 21,21 0 0 1 0.341797,-3.289062 z m 41.523438,6.808594 a 21,21 0 0 1 -0.128907,0.925781 l 2.265626,1.308594 c 1.641712,0.947843 2.617034,2.590267 2.777343,4.33789 0.185479,-2.100574 -0.824725,-4.210545 -2.777343,-5.33789 z m -41.529297,0.0039 -2.1308601,1.230469 c -1.952618,1.127345 -2.962822,3.237316 -2.777343,5.33789 0.160309,-1.747623 1.135631,-3.390047 2.777343,-4.33789 l 2.2656261,-1.308594 a 21,21 0 0 1 -0.134766,-0.921875 z"
       id="path16-9" />
    <rect
       style="opacity:0.4"
       width="6"
       height="16.799999"
       x="29"
       y="40.199814"
       rx="3"
       ry="2.8"
       id="rect10" />
    <path
       style="opacity:0.2"
       d="m 38,20.367002 v 9.632812 l -6,4 -6,-4 v -9.619141 c -4.864353,2.309266 -7.993068,7.20808 -8,12.619141 0,7.731985 6.268014,14 14,14 7.731986,0 14,-6.268015 14,-14 -0.0027,-5.415462 -3.131436,-10.322092 -8,-12.632812 z"
       id="path12-3" />
    <path
       style="fill:#ffffff"
       d="m 38,19.367 v 9.632812 l -6,4 -6,-4 v -9.619141 c -4.864353,2.309266 -7.993068,7.20808 -8,12.619141 0,7.731985 6.268014,14 14,14 7.731986,0 14,-6.268015 14,-14 C 45.9973,26.58435 42.868564,21.67772 38,19.367 Z"
       id="path14-5" />
  </g>
  <g
     id="g154">
    <g
       aria-label="Spotify
Tools"
       id="text839-9"
       style="font-style:normal;font-variant:normal;font-weight:500;font-stretch:normal;font-size:21.2398px;line-height:1.125;font-family:Rubik;-inkscape-font-specification:'Rubik Medium';text-align:center;text-anchor:middle;opacity:0.2;fill:#000000;fill-opacity:1;stroke:none;stroke-width:0.530993">
      <path
         d="m 79.144466,31.241122 q -2.986276,0 -5.009238,-0.866983 -1.990851,-0.899094 -3.050497,-2.311956 -1.027536,-1.444973 -1.091757,-3.018387 0,-0.288995 0.192663,-0.481658 0.192663,-0.192663 0.481657,-0.192663 h 2.857835 q 0.417436,0 0.610099,0.192663 0.224774,0.160553 0.385326,0.417437 0.192663,0.610099 0.738542,1.220199 0.545878,0.577989 1.477083,0.963315 0.963315,0.385326 2.408287,0.385326 2.311956,0 3.435824,-0.770652 1.155978,-0.770652 1.155978,-2.087183 0,-0.931204 -0.6101,-1.477083 -0.610099,-0.577989 -1.894519,-1.027536 -1.25231,-0.481657 -3.339492,-0.995425 -2.408288,-0.577989 -4.045923,-1.380752 -1.605525,-0.834873 -2.440398,-2.087182 -0.802763,-1.25231 -0.802763,-3.17894 0,-1.862409 0.995426,-3.307381 1.027536,-1.444973 2.889945,-2.279846 1.894519,-0.834873 4.49547,-0.834873 2.087182,0 3.692707,0.577989 1.605525,0.5458785 2.665172,1.477083 1.059646,0.899094 1.605525,1.958741 0.577989,1.027536 0.610099,2.022961 0,0.256884 -0.192663,0.481658 -0.160552,0.192663 -0.481657,0.192663 H 83.89682 q -0.256884,0 -0.513768,-0.128442 -0.256884,-0.128442 -0.417436,-0.481658 -0.192663,-0.995425 -1.25231,-1.701856 -1.059646,-0.706431 -2.729392,-0.706431 -1.733967,0 -2.793614,0.64221 -1.059646,0.64221 -1.059646,1.990851 0,0.899094 0.513768,1.509193 0.545878,0.577989 1.701856,1.027536 1.188089,0.449547 3.114719,0.963315 2.729392,0.6101 4.463359,1.412862 1.733967,0.802763 2.53673,2.055072 0.802762,1.220199 0.802762,3.114719 0,2.119293 -1.155978,3.628486 -1.123867,1.477083 -3.178939,2.279846 -2.055072,0.802762 -4.784465,0.802762 z"
         style="font-style:normal;font-variant:normal;font-weight:500;font-stretch:normal;font-size:32.1105px;font-family:Rubik;-inkscape-font-specification:'Rubik Medium';text-align:center;text-anchor:middle;fill:#000000;fill-opacity:1;stroke-width:0.530993"
         id="path78" />
      <path
         d="m 92.373939,37.021012 q -0.321105,0 -0.545879,-0.224773 -0.224773,-0.224774 -0.224773,-0.545879 V 14.993209 q 0,-0.321105 0.224773,-0.545878 0.224774,-0.224774 0.545879,-0.224774 h 2.536729 q 0.353216,0 0.545879,0.224774 0.224773,0.224773 0.224773,0.545878 v 1.28442 q 0.770652,-1.027536 2.022962,-1.701856 1.252309,-0.674321 3.114718,-0.674321 1.70186,0 2.95417,0.545879 1.25231,0.545878 2.08718,1.573414 0.83487,0.995426 1.28442,2.376177 0.44955,1.380752 0.51377,3.050498 0.0321,0.545878 0.0321,1.123867 0,0.577989 -0.0321,1.155978 -0.0321,1.605525 -0.48166,2.986277 -0.44955,1.348641 -1.31653,2.376177 -0.83487,0.995425 -2.08718,1.573414 -1.25231,0.577989 -2.95417,0.577989 -1.733967,0 -2.954166,-0.610099 -1.220199,-0.64221 -1.990851,-1.669746 v 7.289083 q 0,0.321105 -0.224773,0.545879 -0.192663,0.224773 -0.545879,0.224773 z m 7.256973,-9.215713 q 1.380748,0 2.151408,-0.577989 0.77065,-0.6101 1.09175,-1.573415 0.35322,-0.963315 0.41744,-2.119293 0.0642,-0.963315 0,-1.92663 -0.0642,-1.155978 -0.41744,-2.119293 -0.3211,-0.963315 -1.09175,-1.541304 -0.77066,-0.610099 -2.151408,-0.610099 -1.316531,0 -2.151404,0.610099 -0.802762,0.6101 -1.188088,1.573415 -0.353216,0.931204 -0.417437,1.92663 -0.03211,0.577989 -0.03211,1.220199 0,0.64221 0.03211,1.252309 0.03211,0.963315 0.449547,1.862409 0.417437,0.866984 1.220199,1.444973 0.802763,0.577989 2.087183,0.577989 z"
         style="font-style:normal;font-variant:normal;font-weight:500;font-stretch:normal;font-size:32.1105px;font-family:Rubik;-inkscape-font-specification:'Rubik Medium';text-align:center;text-anchor:middle;fill:#000000;fill-opacity:1;stroke-width:0.530993"
         id="path80" />
      <path
         d="m 118.67238,31.241122 q -2.56884,0 -4.33491,-0.899094 -1.73397,-0.899094 -2.66517,-2.536729 -0.8991,-1.637636 -1.02754,-3.82115 -0.0321,-0.577989 -0.0321,-1.412862 0,-0.834873 0.0321,-1.412862 0.12844,-2.215624 1.05965,-3.821149 0.96331,-1.637636 2.69728,-2.53673 1.76608,-0.899094 4.27069,-0.899094 2.50462,0 4.23859,0.899094 1.76608,0.899094 2.69728,2.53673 0.96332,1.605525 1.09176,3.821149 0.0321,0.577989 0.0321,1.412862 0,0.834873 -0.0321,1.412862 -0.12844,2.183514 -1.05965,3.82115 -0.89909,1.637635 -2.66517,2.536729 -1.73397,0.899094 -4.30281,0.899094 z m 0,-3.178939 q 1.70186,0 2.63307,-1.059647 0.9312,-1.091757 1.02753,-3.178939 0.0321,-0.481658 0.0321,-1.25231 0,-0.770652 -0.0321,-1.252309 -0.0963,-2.055072 -1.02753,-3.146829 -0.93121,-1.091757 -2.63307,-1.091757 -1.70185,0 -2.63306,1.091757 -0.9312,1.091757 -1.02753,3.146829 -0.0321,0.481657 -0.0321,1.252309 0,0.770652 0.0321,1.25231 0.0963,2.087182 1.02753,3.178939 0.93121,1.059647 2.63306,1.059647 z"
         style="font-style:normal;font-variant:normal;font-weight:500;font-stretch:normal;font-size:32.1105px;font-family:Rubik;-inkscape-font-specification:'Rubik Medium';text-align:center;text-anchor:middle;fill:#000000;fill-opacity:1;stroke-width:0.530993"
         id="path82" />
      <path
         d="m 137.72792,30.920017 q -1.92663,0 -3.24316,-0.67432 -1.31653,-0.674321 -1.95874,-1.990851 -0.64221,-1.348641 -0.64221,-3.339492 V 17.62627 h -2.53673 q -0.32111,0 -0.54588,-0.224773 -0.22477,-0.224774 -0.22477,-0.545879 v -1.862409 q 0,-0.321105 0.22477,-0.545878 0.22477,-0.224774 0.54588,-0.224774 h 2.53673 V 8.892214 q 0,-0.321105 0.19266,-0.5458785 0.22477,-0.2247735 0.57799,-0.2247735 h 2.60095 q 0.32111,0 0.54588,0.2247735 0.22477,0.2247735 0.22477,0.5458785 v 5.330343 h 4.01381 q 0.32111,0 0.54588,0.224774 0.22478,0.224773 0.22478,0.545878 v 1.862409 q 0,0.321105 -0.22478,0.545879 -0.22477,0.224773 -0.54588,0.224773 h -4.01381 v 6.967979 q 0,1.31653 0.44955,2.055072 0.48166,0.738541 1.63763,0.738541 h 2.21563 q 0.3211,0 0.54588,0.224774 0.22477,0.224773 0.22477,0.545878 v 1.990851 q 0,0.321105 -0.22477,0.545879 -0.22478,0.224773 -0.54588,0.224773 z"
         style="font-style:normal;font-variant:normal;font-weight:500;font-stretch:normal;font-size:32.1105px;font-family:Rubik;-inkscape-font-specification:'Rubik Medium';text-align:center;text-anchor:middle;fill:#000000;fill-opacity:1;stroke-width:0.530993"
         id="path84" />
      <path
         d="m 144.72797,30.920017 q -0.3211,0 -0.54588,-0.224773 -0.22477,-0.224774 -0.22477,-0.545879 V 14.993209 q 0,-0.321105 0.22477,-0.545878 0.22478,-0.224774 0.54588,-0.224774 h 2.66517 q 0.35322,0 0.54588,0.224774 0.22477,0.224773 0.22477,0.545878 v 15.156156 q 0,0.321105 -0.22477,0.545879 -0.19266,0.224773 -0.54588,0.224773 z m -0.12844,-19.458963 q -0.35322,0 -0.57799,-0.192663 -0.19266,-0.224773 -0.19266,-0.577989 V 8.378446 q 0,-0.321105 0.19266,-0.5458785 0.22477,-0.2247735 0.57799,-0.2247735 h 2.92205 q 0.35322,0 0.57799,0.2247735 0.22478,0.2247735 0.22478,0.5458785 v 2.311956 q 0,0.353216 -0.22478,0.577989 -0.22477,0.192663 -0.57799,0.192663 z"
         style="font-style:normal;font-variant:normal;font-weight:500;font-stretch:normal;font-size:32.1105px;font-family:Rubik;-inkscape-font-specification:'Rubik Medium';text-align:center;text-anchor:middle;fill:#000000;fill-opacity:1;stroke-width:0.530993"
         id="path86" />
      <path
         d="m 155.00333,30.920017 q -0.3211,0 -0.54588,-0.224773 -0.22477,-0.224774 -0.22477,-0.545879 V 17.62627 h -2.60095 q -0.32111,0 -0.54588,-0.224773 -0.22477,-0.224774 -0.22477,-0.545879 v -1.862409 q 0,-0.321105 0.22477,-0.545878 0.22477,-0.224774 0.54588,-0.224774 h 2.60095 v -1.31653 q 0,-1.92663 0.70643,-3.17894 0.70643,-1.28442 2.08718,-1.92663 1.38075,-0.64221 3.50005,-0.64221 h 2.18351 q 0.35322,0 0.54588,0.2247735 0.22477,0.2247735 0.22477,0.5458785 v 1.862409 q 0,0.321105 -0.22477,0.545879 -0.19266,0.224773 -0.54588,0.224773 h -2.05507 q -1.28442,0 -1.76608,0.64221 -0.48166,0.64221 -0.48166,1.862409 v 1.155978 h 3.98171 q 0.35321,0 0.54588,0.224774 0.22477,0.224773 0.22477,0.545878 v 1.862409 q 0,0.321105 -0.22477,0.545879 -0.19267,0.224773 -0.54588,0.224773 h -3.98171 v 12.523095 q 0,0.321105 -0.22477,0.545879 -0.22477,0.224773 -0.54588,0.224773 z"
         style="font-style:normal;font-variant:normal;font-weight:500;font-stretch:normal;font-size:32.1105px;font-family:Rubik;-inkscape-font-specification:'Rubik Medium';text-align:center;text-anchor:middle;fill:#000000;fill-opacity:1;stroke-width:0.530993"
         id="path88" />
      <path
         d="m 168.74661,37.021012 q -0.25688,0 -0.44955,-0.192663 -0.19266,-0.192663 -0.19266,-0.449547 0,-0.128442 0,-0.256884 0.0321,-0.09633 0.12844,-0.256884 l 2.50462,-5.940442 -6.16521,-14.546057 q -0.12845,-0.321105 -0.12845,-0.449547 0.0321,-0.288994 0.22478,-0.481657 0.19266,-0.224774 0.48165,-0.224774 h 2.60095 q 0.38533,0 0.57799,0.192663 0.19267,0.192663 0.289,0.417437 l 4.27069,10.500133 4.39914,-10.500133 q 0.0963,-0.256884 0.289,-0.417437 0.19266,-0.192663 0.57799,-0.192663 h 2.56884 q 0.25688,0 0.44954,0.192663 0.22478,0.192663 0.22478,0.449547 0,0.192663 -0.12844,0.513768 l -9.08728,21.032378 q -0.12844,0.256884 -0.3211,0.417436 -0.19266,0.192663 -0.57799,0.192663 z"
         style="font-style:normal;font-variant:normal;font-weight:500;font-stretch:normal;font-size:32.1105px;font-family:Rubik;-inkscape-font-specification:'Rubik Medium';text-align:center;text-anchor:middle;fill:#000000;fill-opacity:1;stroke-width:0.530993"
         id="path90" />
      <path
         d="m 104.39106,57.787607 q -0.21239,0 -0.36107,-0.148678 -0.14868,-0.148679 -0.14868,-0.361077 V 45.532243 h -3.929364 q -0.212398,0 -0.361076,-0.148679 -0.148679,-0.148678 -0.148679,-0.361076 v -1.571745 q 0,-0.233638 0.148679,-0.382317 0.148678,-0.148678 0.361076,-0.148678 h 10.832294 q 0.23364,0 0.38232,0.148678 0.14868,0.148679 0.14868,0.382317 v 1.571745 q 0,0.212398 -0.14868,0.361076 -0.14868,0.148679 -0.38232,0.148679 h -3.90812 v 11.745609 q 0,0.212398 -0.14868,0.361077 -0.14868,0.148678 -0.38231,0.148678 z"
         style="font-style:normal;font-variant:normal;font-weight:500;font-stretch:normal;font-family:Rubik;-inkscape-font-specification:'Rubik Medium';text-align:center;baseline-shift:baseline;text-anchor:middle;fill:#000000;fill-opacity:1;stroke-width:0.530993"
         id="path92" />
      <path
         d="m 116.13466,58.000005 q -1.69919,0 -2.86737,-0.594714 -1.14695,-0.594714 -1.76291,-1.677944 -0.59471,-1.08323 -0.67967,-2.527536 -0.0212,-0.382317 -0.0212,-0.934552 0,-0.552234 0.0212,-0.934551 0.085,-1.465546 0.70091,-2.527536 0.6372,-1.08323 1.78415,-1.677944 1.16818,-0.594714 2.82489,-0.594714 1.6567,0 2.80365,0.594714 1.16819,0.594714 1.78415,1.677944 0.63719,1.06199 0.72215,2.527536 0.0212,0.382317 0.0212,0.934551 0,0.552235 -0.0212,0.934552 -0.085,1.444306 -0.70092,2.527536 -0.59471,1.08323 -1.7629,1.677944 -1.14695,0.594714 -2.84613,0.594714 z m 0,-2.10274 q 1.12571,0 1.74166,-0.700913 0.61596,-0.722153 0.67968,-2.10274 0.0212,-0.318597 0.0212,-0.828353 0,-0.509755 -0.0212,-0.828352 -0.0637,-1.359347 -0.67968,-2.0815 -0.61595,-0.722153 -1.74166,-0.722153 -1.12571,0 -1.74167,0.722153 -0.61595,0.722153 -0.67967,2.0815 -0.0212,0.318597 -0.0212,0.828352 0,0.509756 0.0212,0.828353 0.0637,1.380587 0.67967,2.10274 0.61596,0.700913 1.74167,0.700913 z"
         style="font-style:normal;font-variant:normal;font-weight:500;font-stretch:normal;font-family:Rubik;-inkscape-font-specification:'Rubik Medium';text-align:center;baseline-shift:baseline;text-anchor:middle;fill:#000000;fill-opacity:1;stroke-width:0.530993"
         id="path94" />
      <path
         d="m 128.7086,58.000005 q -1.69918,0 -2.86737,-0.594714 -1.14695,-0.594714 -1.76291,-1.677944 -0.59471,-1.08323 -0.67967,-2.527536 -0.0212,-0.382317 -0.0212,-0.934552 0,-0.552234 0.0212,-0.934551 0.085,-1.465546 0.70091,-2.527536 0.6372,-1.08323 1.78415,-1.677944 1.16819,-0.594714 2.82489,-0.594714 1.6567,0 2.80365,0.594714 1.16819,0.594714 1.78415,1.677944 0.63719,1.06199 0.72215,2.527536 0.0212,0.382317 0.0212,0.934551 0,0.552235 -0.0212,0.934552 -0.085,1.444306 -0.70091,2.527536 -0.59472,1.08323 -1.76291,1.677944 -1.14695,0.594714 -2.84613,0.594714 z m 0,-2.10274 q 1.12571,0 1.74166,-0.700913 0.61596,-0.722153 0.67968,-2.10274 0.0212,-0.318597 0.0212,-0.828353 0,-0.509755 -0.0212,-0.828352 -0.0637,-1.359347 -0.67968,-2.0815 -0.61595,-0.722153 -1.74166,-0.722153 -1.12571,0 -1.74166,0.722153 -0.61596,0.722153 -0.67968,2.0815 -0.0212,0.318597 -0.0212,0.828352 0,0.509756 0.0212,0.828353 0.0637,1.380587 0.67968,2.10274 0.61595,0.700913 1.74166,0.700913 z"
         style="font-style:normal;font-variant:normal;font-weight:500;font-stretch:normal;font-family:Rubik;-inkscape-font-specification:'Rubik Medium';text-align:center;baseline-shift:baseline;text-anchor:middle;fill:#000000;fill-opacity:1;stroke-width:0.530993"
         id="path96" />
      <path
         d="m 136.92838,57.787607 q -0.21239,0 -0.36107,-0.148678 -0.14868,-0.148679 -0.14868,-0.361077 V 43.217105 q 0,-0.212398 0.14868,-0.361077 0.14868,-0.148678 0.36107,-0.148678 h 1.76291 q 0.21239,0 0.36107,0.148678 0.14868,0.148679 0.14868,0.361077 v 14.060747 q 0,0.212398 -0.14868,0.361077 -0.14868,0.148678 -0.36107,0.148678 z"
         style="font-style:normal;font-variant:normal;font-weight:500;font-stretch:normal;font-family:Rubik;-inkscape-font-specification:'Rubik Medium';text-align:center;baseline-shift:baseline;text-anchor:middle;fill:#000000;fill-opacity:1;stroke-width:0.530993"
         id="path98" />
      <path
         d="m 146.21016,58.000005 q -1.27439,0 -2.1877,-0.297357 -0.89207,-0.297357 -1.46554,-0.743393 -0.57348,-0.446036 -0.8496,-0.892071 -0.27611,-0.446036 -0.29735,-0.743393 -0.0212,-0.233638 0.12744,-0.361077 0.16991,-0.148679 0.36107,-0.148679 h 1.67795 q 0.085,0 0.14867,0.02124 0.0637,0.02124 0.16992,0.127439 0.27612,0.233638 0.57348,0.488515 0.31859,0.254878 0.74339,0.446036 0.4248,0.169919 1.06199,0.169919 0.82835,0 1.38059,-0.318597 0.57347,-0.339837 0.57347,-0.955791 0,-0.446036 -0.25488,-0.722154 -0.23363,-0.276117 -0.89207,-0.488515 -0.65843,-0.233638 -1.8691,-0.488515 -1.18943,-0.276118 -1.9753,-0.700914 -0.78587,-0.424796 -1.16819,-1.06199 -0.38232,-0.637194 -0.38232,-1.486786 0,-0.828352 0.48852,-1.571745 0.50975,-0.764633 1.48678,-1.253148 0.99828,-0.488515 2.46382,-0.488515 1.14695,0 1.99654,0.297357 0.84959,0.276117 1.40183,0.700913 0.57347,0.424796 0.87083,0.870832 0.29736,0.424796 0.3186,0.743393 0.0212,0.233638 -0.12744,0.382316 -0.14868,0.127439 -0.33984,0.127439 h -1.57174 q -0.1062,0 -0.19116,-0.04248 -0.085,-0.04248 -0.16992,-0.106199 -0.23364,-0.212398 -0.50975,-0.446035 -0.27612,-0.233638 -0.67968,-0.403557 -0.38231,-0.191158 -1.01951,-0.191158 -0.80711,0 -1.23191,0.361077 -0.42479,0.339837 -0.42479,0.870832 0,0.361076 0.19116,0.637194 0.21239,0.254877 0.82835,0.488515 0.61595,0.233638 1.8691,0.488515 1.42307,0.254878 2.25142,0.764633 0.84959,0.488516 1.18943,1.146949 0.36107,0.637194 0.36107,1.423067 0,0.955791 -0.57347,1.720424 -0.55223,0.764632 -1.6567,1.210668 -1.08323,0.424796 -2.69746,0.424796 z"
         style="font-style:normal;font-variant:normal;font-weight:500;font-stretch:normal;font-family:Rubik;-inkscape-font-specification:'Rubik Medium';text-align:center;baseline-shift:baseline;text-anchor:middle;fill:#000000;fill-opacity:1;stroke-width:0.530993"
         id="path100" />
    </g>
    <g
       aria-label="Spotify
Tools"
       id="text839"
       style="font-style:normal;font-variant:normal;font-weight:500;font-stretch:normal;font-size:21.2398px;line-height:1.125;font-family:Rubik;-inkscape-font-specification:'Rubik Medium';text-align:center;text-anchor:middle;fill:#1ed760;fill-opacity:1;stroke:none;stroke-width:0.530993">
      <path
         d="m 79.144466,30.082881 q -2.986276,0 -5.009238,-0.866984 -1.990851,-0.899094 -3.050497,-2.311956 -1.027536,-1.444972 -1.091757,-3.018387 0,-0.288994 0.192663,-0.481657 0.192663,-0.192663 0.481657,-0.192663 h 2.857835 q 0.417436,0 0.610099,0.192663 0.224774,0.160552 0.385326,0.417436 0.192663,0.6101 0.738542,1.220199 0.545878,0.577989 1.477083,0.963315 0.963315,0.385326 2.408287,0.385326 2.311956,0 3.435824,-0.770652 1.155978,-0.770652 1.155978,-2.087182 0,-0.931205 -0.6101,-1.477083 -0.610099,-0.577989 -1.894519,-1.027536 -1.25231,-0.481658 -3.339492,-0.995426 -2.408288,-0.577989 -4.045923,-1.380751 -1.605525,-0.834873 -2.440398,-2.087183 -0.802763,-1.252309 -0.802763,-3.178939 0,-1.862409 0.995426,-3.307382 1.027536,-1.4449723 2.889945,-2.2798453 1.894519,-0.834873 4.49547,-0.834873 2.087182,0 3.692707,0.577989 1.605525,0.5458785 2.665172,1.4770831 1.059646,0.899094 1.605525,1.9587402 0.577989,1.027536 0.610099,2.022962 0,0.256884 -0.192663,0.481657 -0.160552,0.192663 -0.481657,0.192663 H 83.89682 q -0.256884,0 -0.513768,-0.128442 -0.256884,-0.128442 -0.417436,-0.481657 -0.192663,-0.995426 -1.25231,-1.701857 -1.059646,-0.706431 -2.729392,-0.706431 -1.733967,0 -2.793614,0.64221 -1.059646,0.64221 -1.059646,1.990851 0,0.899094 0.513768,1.509194 0.545878,0.577989 1.701856,1.027536 1.188089,0.449547 3.114719,0.963315 2.729392,0.610099 4.463359,1.412862 1.733967,0.802762 2.53673,2.055072 0.802762,1.220199 0.802762,3.114718 0,2.119293 -1.155978,3.628487 -1.123867,1.477083 -3.178939,2.279845 -2.055072,0.802763 -4.784465,0.802763 z"
         style="font-style:normal;font-variant:normal;font-weight:500;font-stretch:normal;font-size:32.1105px;font-family:Rubik;-inkscape-font-specification:'Rubik Medium';text-align:center;text-anchor:middle;fill:#1ed760;fill-opacity:1;stroke-width:0.530993"
         id="path103" />
      <path
         d="m 92.373939,35.862771 q -0.321105,0 -0.545879,-0.224773 -0.224773,-0.224774 -0.224773,-0.545879 V 13.834968 q 0,-0.321105 0.224773,-0.545879 0.224774,-0.224773 0.545879,-0.224773 h 2.536729 q 0.353216,0 0.545879,0.224773 0.224773,0.224774 0.224773,0.545879 v 1.28442 q 0.770652,-1.027536 2.022962,-1.701857 1.252309,-0.67432 3.114718,-0.67432 1.70186,0 2.95417,0.545878 1.25231,0.545879 2.08718,1.573415 0.83487,0.995425 1.28442,2.376177 0.44955,1.380751 0.51377,3.050497 0.0321,0.545879 0.0321,1.123868 0,0.577989 -0.0321,1.155978 -0.0321,1.605525 -0.48166,2.986276 -0.44955,1.348641 -1.31653,2.376177 -0.83487,0.995426 -2.08718,1.573415 -1.25231,0.577989 -2.95417,0.577989 -1.733967,0 -2.954166,-0.6101 -1.220199,-0.64221 -1.990851,-1.669746 v 7.289084 q 0,0.321105 -0.224773,0.545879 -0.192663,0.224773 -0.545879,0.224773 z m 7.256973,-9.215714 q 1.380748,0 2.151408,-0.577989 0.77065,-0.610099 1.09175,-1.573414 0.35322,-0.963315 0.41744,-2.119293 0.0642,-0.963315 0,-1.92663 -0.0642,-1.155978 -0.41744,-2.119293 -0.3211,-0.963315 -1.09175,-1.541304 -0.77066,-0.6101 -2.151408,-0.6101 -1.316531,0 -2.151404,0.6101 -0.802762,0.610099 -1.188088,1.573414 -0.353216,0.931205 -0.417437,1.92663 -0.03211,0.577989 -0.03211,1.220199 0,0.64221 0.03211,1.25231 0.03211,0.963315 0.449547,1.862409 0.417437,0.866983 1.220199,1.444972 0.802763,0.577989 2.087183,0.577989 z"
         style="font-style:normal;font-variant:normal;font-weight:500;font-stretch:normal;font-size:32.1105px;font-family:Rubik;-inkscape-font-specification:'Rubik Medium';text-align:center;text-anchor:middle;fill:#1ed760;fill-opacity:1;stroke-width:0.530993"
         id="path105" />
      <path
         d="m 118.67238,30.082881 q -2.56884,0 -4.33491,-0.899094 -1.73397,-0.899094 -2.66517,-2.53673 -0.8991,-1.637635 -1.02754,-3.821149 -0.0321,-0.577989 -0.0321,-1.412862 0,-0.834873 0.0321,-1.412862 0.12844,-2.215625 1.05965,-3.82115 0.96331,-1.637635 2.69728,-2.536729 1.76608,-0.899094 4.27069,-0.899094 2.50462,0 4.23859,0.899094 1.76608,0.899094 2.69728,2.536729 0.96332,1.605525 1.09176,3.82115 0.0321,0.577989 0.0321,1.412862 0,0.834873 -0.0321,1.412862 -0.12844,2.183514 -1.05965,3.821149 -0.89909,1.637636 -2.66517,2.53673 -1.73397,0.899094 -4.30281,0.899094 z m 0,-3.17894 q 1.70186,0 2.63307,-1.059646 0.9312,-1.091757 1.02753,-3.17894 0.0321,-0.481657 0.0321,-1.252309 0,-0.770652 -0.0321,-1.25231 -0.0963,-2.055072 -1.02753,-3.146829 -0.93121,-1.091757 -2.63307,-1.091757 -1.70185,0 -2.63306,1.091757 -0.9312,1.091757 -1.02753,3.146829 -0.0321,0.481658 -0.0321,1.25231 0,0.770652 0.0321,1.252309 0.0963,2.087183 1.02753,3.17894 0.93121,1.059646 2.63306,1.059646 z"
         style="font-style:normal;font-variant:normal;font-weight:500;font-stretch:normal;font-size:32.1105px;font-family:Rubik;-inkscape-font-specification:'Rubik Medium';text-align:center;text-anchor:middle;fill:#1ed760;fill-opacity:1;stroke-width:0.530993"
         id="path107" />
      <path
         d="m 137.72792,29.761776 q -1.92663,0 -3.24316,-0.674321 -1.31653,-0.67432 -1.95874,-1.990851 -0.64221,-1.348641 -0.64221,-3.339492 v -7.289083 h -2.53673 q -0.32111,0 -0.54588,-0.224774 -0.22477,-0.224773 -0.22477,-0.545878 v -1.862409 q 0,-0.321105 0.22477,-0.545879 0.22477,-0.224773 0.54588,-0.224773 h 2.53673 V 7.7339727 q 0,-0.321105 0.19266,-0.5458785 0.22477,-0.2247735 0.57799,-0.2247735 h 2.60095 q 0.32111,0 0.54588,0.2247735 0.22477,0.2247735 0.22477,0.5458785 v 5.3303433 h 4.01381 q 0.32111,0 0.54588,0.224773 0.22478,0.224774 0.22478,0.545879 v 1.862409 q 0,0.321105 -0.22478,0.545878 -0.22477,0.224774 -0.54588,0.224774 h -4.01381 v 6.967978 q 0,1.316531 0.44955,2.055072 0.48166,0.738542 1.63763,0.738542 h 2.21563 q 0.3211,0 0.54588,0.224773 0.22477,0.224774 0.22477,0.545879 v 1.990851 q 0,0.321105 -0.22477,0.545878 -0.22478,0.224774 -0.54588,0.224774 z"
         style="font-style:normal;font-variant:normal;font-weight:500;font-stretch:normal;font-size:32.1105px;font-family:Rubik;-inkscape-font-specification:'Rubik Medium';text-align:center;text-anchor:middle;fill:#1ed760;fill-opacity:1;stroke-width:0.530993"
         id="path109" />
      <path
         d="m 144.72797,29.761776 q -0.3211,0 -0.54588,-0.224774 -0.22477,-0.224773 -0.22477,-0.545878 V 13.834968 q 0,-0.321105 0.22477,-0.545879 0.22478,-0.224773 0.54588,-0.224773 h 2.66517 q 0.35322,0 0.54588,0.224773 0.22477,0.224774 0.22477,0.545879 v 15.156156 q 0,0.321105 -0.22477,0.545878 -0.19266,0.224774 -0.54588,0.224774 z m -0.12844,-19.458963 q -0.35322,0 -0.57799,-0.192663 -0.19266,-0.2247737 -0.19266,-0.5779892 V 7.2202047 q 0,-0.321105 0.19266,-0.5458785 0.22477,-0.2247735 0.57799,-0.2247735 h 2.92205 q 0.35322,0 0.57799,0.2247735 0.22478,0.2247735 0.22478,0.5458785 v 2.3119561 q 0,0.3532155 -0.22478,0.5779892 -0.22477,0.192663 -0.57799,0.192663 z"
         style="font-style:normal;font-variant:normal;font-weight:500;font-stretch:normal;font-size:32.1105px;font-family:Rubik;-inkscape-font-specification:'Rubik Medium';text-align:center;text-anchor:middle;fill:#1ed760;fill-opacity:1;stroke-width:0.530993"
         id="path111" />
      <path
         d="m 155.00333,29.761776 q -0.3211,0 -0.54588,-0.224774 -0.22477,-0.224773 -0.22477,-0.545878 V 16.468029 h -2.60095 q -0.32111,0 -0.54588,-0.224774 -0.22477,-0.224773 -0.22477,-0.545878 v -1.862409 q 0,-0.321105 0.22477,-0.545879 0.22477,-0.224773 0.54588,-0.224773 h 2.60095 v -1.316531 q 0,-1.9266297 0.70643,-3.1789393 0.70643,-1.28442 2.08718,-1.92663 1.38075,-0.64221 3.50005,-0.64221 h 2.18351 q 0.35322,0 0.54588,0.2247735 0.22477,0.2247735 0.22477,0.5458785 v 1.862409 q 0,0.3211051 -0.22477,0.5458786 -0.19266,0.2247735 -0.54588,0.2247735 h -2.05507 q -1.28442,0 -1.76608,0.6422102 -0.48166,0.64221 -0.48166,1.862409 v 1.155978 h 3.98171 q 0.35321,0 0.54588,0.224773 0.22477,0.224774 0.22477,0.545879 v 1.862409 q 0,0.321105 -0.22477,0.545878 -0.19267,0.224774 -0.54588,0.224774 h -3.98171 v 12.523095 q 0,0.321105 -0.22477,0.545878 -0.22477,0.224774 -0.54588,0.224774 z"
         style="font-style:normal;font-variant:normal;font-weight:500;font-stretch:normal;font-size:32.1105px;font-family:Rubik;-inkscape-font-specification:'Rubik Medium';text-align:center;text-anchor:middle;fill:#1ed760;fill-opacity:1;stroke-width:0.530993"
         id="path113" />
      <path
         d="m 168.74661,35.862771 q -0.25688,0 -0.44955,-0.192663 -0.19266,-0.192663 -0.19266,-0.449547 0,-0.128442 0,-0.256884 0.0321,-0.09633 0.12844,-0.256884 l 2.50462,-5.940443 -6.16521,-14.546056 q -0.12845,-0.321105 -0.12845,-0.449547 0.0321,-0.288995 0.22478,-0.481658 0.19266,-0.224773 0.48165,-0.224773 h 2.60095 q 0.38533,0 0.57799,0.192663 0.19267,0.192663 0.289,0.417436 l 4.27069,10.500134 4.39914,-10.500134 q 0.0963,-0.256884 0.289,-0.417436 0.19266,-0.192663 0.57799,-0.192663 h 2.56884 q 0.25688,0 0.44954,0.192663 0.22478,0.192663 0.22478,0.449547 0,0.192663 -0.12844,0.513768 l -9.08728,21.032378 q -0.12844,0.256884 -0.3211,0.417436 -0.19266,0.192663 -0.57799,0.192663 z"
         style="font-style:normal;font-variant:normal;font-weight:500;font-stretch:normal;font-size:32.1105px;font-family:Rubik;-inkscape-font-specification:'Rubik Medium';text-align:center;text-anchor:middle;fill:#1ed760;fill-opacity:1;stroke-width:0.530993"
         id="path115" />
      <path
         d="m 104.39106,56.629366 q -0.21239,0 -0.36107,-0.148679 -0.14868,-0.148678 -0.14868,-0.361076 V 44.374002 h -3.929364 q -0.212398,0 -0.361076,-0.148679 -0.148679,-0.148678 -0.148679,-0.361076 v -1.571746 q 0,-0.233637 0.148679,-0.382316 0.148678,-0.148679 0.361076,-0.148679 h 10.832294 q 0.23364,0 0.38232,0.148679 0.14868,0.148679 0.14868,0.382316 v 1.571746 q 0,0.212398 -0.14868,0.361076 -0.14868,0.148679 -0.38232,0.148679 h -3.90812 v 11.745609 q 0,0.212398 -0.14868,0.361076 -0.14868,0.148679 -0.38231,0.148679 z"
         style="font-style:normal;font-variant:normal;font-weight:500;font-stretch:normal;font-family:Rubik;-inkscape-font-specification:'Rubik Medium';text-align:center;baseline-shift:baseline;text-anchor:middle;fill:#1ed760;fill-opacity:1;stroke-width:0.530993"
         id="path117" />
      <path
         d="m 116.13466,56.841764 q -1.69919,0 -2.86737,-0.594714 -1.14695,-0.594715 -1.76291,-1.677945 -0.59471,-1.083229 -0.67967,-2.527536 -0.0212,-0.382316 -0.0212,-0.934551 0,-0.552235 0.0212,-0.934551 0.085,-1.465546 0.70091,-2.527536 0.6372,-1.08323 1.78415,-1.677944 1.16818,-0.594715 2.82489,-0.594715 1.6567,0 2.80365,0.594715 1.16819,0.594714 1.78415,1.677944 0.63719,1.06199 0.72215,2.527536 0.0212,0.382316 0.0212,0.934551 0,0.552235 -0.0212,0.934551 -0.085,1.444307 -0.70092,2.527536 -0.59471,1.08323 -1.7629,1.677945 -1.14695,0.594714 -2.84613,0.594714 z m 0,-2.10274 q 1.12571,0 1.74166,-0.700914 0.61596,-0.722153 0.67968,-2.10274 0.0212,-0.318597 0.0212,-0.828352 0,-0.509755 -0.0212,-0.828352 -0.0637,-1.359347 -0.67968,-2.0815 -0.61595,-0.722154 -1.74166,-0.722154 -1.12571,0 -1.74167,0.722154 -0.61595,0.722153 -0.67967,2.0815 -0.0212,0.318597 -0.0212,0.828352 0,0.509755 0.0212,0.828352 0.0637,1.380587 0.67967,2.10274 0.61596,0.700914 1.74167,0.700914 z"
         style="font-style:normal;font-variant:normal;font-weight:500;font-stretch:normal;font-family:Rubik;-inkscape-font-specification:'Rubik Medium';text-align:center;baseline-shift:baseline;text-anchor:middle;fill:#1ed760;fill-opacity:1;stroke-width:0.530993"
         id="path119" />
      <path
         d="m 128.7086,56.841764 q -1.69918,0 -2.86737,-0.594714 -1.14695,-0.594715 -1.76291,-1.677945 -0.59471,-1.083229 -0.67967,-2.527536 -0.0212,-0.382316 -0.0212,-0.934551 0,-0.552235 0.0212,-0.934551 0.085,-1.465546 0.70091,-2.527536 0.6372,-1.08323 1.78415,-1.677944 1.16819,-0.594715 2.82489,-0.594715 1.6567,0 2.80365,0.594715 1.16819,0.594714 1.78415,1.677944 0.63719,1.06199 0.72215,2.527536 0.0212,0.382316 0.0212,0.934551 0,0.552235 -0.0212,0.934551 -0.085,1.444307 -0.70091,2.527536 -0.59472,1.08323 -1.76291,1.677945 -1.14695,0.594714 -2.84613,0.594714 z m 0,-2.10274 q 1.12571,0 1.74166,-0.700914 0.61596,-0.722153 0.67968,-2.10274 0.0212,-0.318597 0.0212,-0.828352 0,-0.509755 -0.0212,-0.828352 -0.0637,-1.359347 -0.67968,-2.0815 -0.61595,-0.722154 -1.74166,-0.722154 -1.12571,0 -1.74166,0.722154 -0.61596,0.722153 -0.67968,2.0815 -0.0212,0.318597 -0.0212,0.828352 0,0.509755 0.0212,0.828352 0.0637,1.380587 0.67968,2.10274 0.61595,0.700914 1.74166,0.700914 z"
         style="font-style:normal;font-variant:normal;font-weight:500;font-stretch:normal;font-family:Rubik;-inkscape-font-specification:'Rubik Medium';text-align:center;baseline-shift:baseline;text-anchor:middle;fill:#1ed760;fill-opacity:1;stroke-width:0.530993"
         id="path121" />
      <path
         d="m 136.92838,56.629366 q -0.21239,0 -0.36107,-0.148679 -0.14868,-0.148678 -0.14868,-0.361076 V 42.058864 q 0,-0.212398 0.14868,-0.361077 0.14868,-0.148679 0.36107,-0.148679 h 1.76291 q 0.21239,0 0.36107,0.148679 0.14868,0.148679 0.14868,0.361077 v 14.060747 q 0,0.212398 -0.14868,0.361076 -0.14868,0.148679 -0.36107,0.148679 z"
         style="font-style:normal;font-variant:normal;font-weight:500;font-stretch:normal;font-family:Rubik;-inkscape-font-specification:'Rubik Medium';text-align:center;baseline-shift:baseline;text-anchor:middle;fill:#1ed760;fill-opacity:1;stroke-width:0.530993"
         id="path123" />
      <path
         d="m 146.21016,56.841764 q -1.27439,0 -2.1877,-0.297357 -0.89207,-0.297357 -1.46554,-0.743393 -0.57348,-0.446036 -0.8496,-0.892072 -0.27611,-0.446036 -0.29735,-0.743393 -0.0212,-0.233638 0.12744,-0.361076 0.16991,-0.148679 0.36107,-0.148679 h 1.67795 q 0.085,0 0.14867,0.02124 0.0637,0.02124 0.16992,0.127439 0.27612,0.233637 0.57348,0.488515 0.31859,0.254878 0.74339,0.446036 0.4248,0.169918 1.06199,0.169918 0.82835,0 1.38059,-0.318597 0.57347,-0.339837 0.57347,-0.955791 0,-0.446036 -0.25488,-0.722153 -0.23363,-0.276117 -0.89207,-0.488515 -0.65843,-0.233638 -1.8691,-0.488516 -1.18943,-0.276117 -1.9753,-0.700913 -0.78587,-0.424796 -1.16819,-1.06199 -0.38232,-0.637194 -0.38232,-1.486786 0,-0.828352 0.48852,-1.571745 0.50975,-0.764633 1.48678,-1.253148 0.99828,-0.488516 2.46382,-0.488516 1.14695,0 1.99654,0.297357 0.84959,0.276118 1.40183,0.700914 0.57347,0.424796 0.87083,0.870832 0.29736,0.424796 0.3186,0.743393 0.0212,0.233637 -0.12744,0.382316 -0.14868,0.127439 -0.33984,0.127439 h -1.57174 q -0.1062,0 -0.19116,-0.04248 -0.085,-0.04248 -0.16992,-0.106199 -0.23364,-0.212398 -0.50975,-0.446036 -0.27612,-0.233637 -0.67968,-0.403556 -0.38231,-0.191158 -1.01951,-0.191158 -0.80711,0 -1.23191,0.361077 -0.42479,0.339836 -0.42479,0.870831 0,0.361077 0.19116,0.637194 0.21239,0.254878 0.82835,0.488516 0.61595,0.233638 1.8691,0.488515 1.42307,0.254878 2.25142,0.764633 0.84959,0.488515 1.18943,1.146949 0.36107,0.637194 0.36107,1.423067 0,0.955791 -0.57347,1.720423 -0.55223,0.764633 -1.6567,1.210669 -1.08323,0.424796 -2.69746,0.424796 z"
         style="font-style:normal;font-variant:normal;font-weight:500;font-stretch:normal;font-family:Rubik;-inkscape-font-specification:'Rubik Medium';text-align:center;baseline-shift:baseline;text-anchor:middle;fill:#1ed760;fill-opacity:1;stroke-width:0.530993"
         id="path125" />
    </g>
  </g>
</svg>
