<?xml version="1.0" encoding="UTF-8" standalone="no"?>
<svg
   xmlns:dc="http://purl.org/dc/elements/1.1/"
   xmlns:cc="http://creativecommons.org/ns#"
   xmlns:rdf="http://www.w3.org/1999/02/22-rdf-syntax-ns#"
   xmlns:svg="http://www.w3.org/2000/svg"
   xmlns="http://www.w3.org/2000/svg"
   xmlns:sodipodi="http://sodipodi.sourceforge.net/DTD/sodipodi-0.dtd"
   xmlns:inkscape="http://www.inkscape.org/namespaces/inkscape"
   width="64"
   height="64"
   version="1"
   id="svg20"
   sodipodi:docname="spotifytools-preferences.svg"
   inkscape:version="1.0.2 (e86c870879, 2021-01-15)">
  <metadata
     id="metadata26">
    <rdf:RDF>
      <cc:Work
         rdf:about="">
        <dc:format>image/svg+xml</dc:format>
        <dc:type
           rdf:resource="http://purl.org/dc/dcmitype/StillImage" />
      </cc:Work>
    </rdf:RDF>
  </metadata>
  <defs
     id="defs24" />
  <sodipodi:namedview
     pagecolor="#ffffff"
     bordercolor="#666666"
     borderopacity="1"
     objecttolerance="10"
     gridtolerance="10"
     guidetolerance="10"
     inkscape:pageopacity="0"
     inkscape:pageshadow="2"
     inkscape:window-width="1920"
     inkscape:window-height="1156"
     id="namedview22"
     showgrid="false"
     inkscape:zoom="10.109375"
     inkscape:cx="4.4991736"
     inkscape:cy="23.863904"
     inkscape:window-x="0"
     inkscape:window-y="44"
     inkscape:window-maximized="0"
     inkscape:current-layer="svg20"
     inkscape:document-rotation="0" />
  <path
     style="opacity:0.2"
     d="m 30.600317,5.0000019 c -3.1024,0 -5.6,2.4975999 -5.6,5.6000001 v 2.625 a 21,21 0 0 0 -6.622656,3.825391 l -2.275,-1.3125 c -2.686757,-1.5512 -6.099581,-0.635977 -7.6507811,2.050781 l -1.4,2.422656 c -1.5512,2.686758 -0.635976,6.099581 2.050781,7.650781 l 2.2640631,1.307032 a 21,21 0 0 0 -0.366407,3.830859 21,21 0 0 0 0.366407,3.830859 l -2.2640631,1.307032 c -2.686757,1.5512 -3.601981,4.964023 -2.050781,7.650781 l 1.4,2.422656 c 1.5512001,2.686758 4.9640241,3.601981 7.6507811,2.050781 l 2.258593,-1.304296 a 21,21 0 0 0 13.639063,5.042187 21,21 0 0 0 13.622657,-5.050391 l 2.275,1.3125 c 2.686757,1.5512 6.09958,0.635977 7.65078,-2.050781 l 1.4,-2.422656 c 1.5512,-2.686758 0.635977,-6.099581 -2.05078,-7.650781 l -2.264063,-1.307032 a 21,21 0 0 0 0.366406,-3.830859 21,21 0 0 0 -0.366406,-3.830859 l 2.264063,-1.307032 c 2.686757,-1.5512 3.60198,-4.964023 2.05078,-7.650781 l -1.4,-2.422656 c -1.5512,-2.686758 -4.964023,-3.601981 -7.65078,-2.050781 l -2.258594,1.304296 a 21,21 0 0 0 -6.639063,-3.814453 v -2.627734 c 0,-3.1024002 -2.4976,-5.6000001 -5.6,-5.6000001 z"
     id="path2-6" />
  <path
     style="fill:#1ed760;fill-opacity:1"
     d="m 30.600317,4 c -3.1024,0 -5.6,2.4975998 -5.6,5.5999998 V 12.225 a 21,21 0 0 0 -6.622656,3.825391 l -2.275,-1.3125 c -2.686757,-1.5512 -6.099581,-0.635977 -7.6507811,2.050781 l -1.4,2.422656 c -1.5512,2.686758 -0.635976,6.099581 2.050781,7.650781 l 2.2640631,1.307032 A 21,21 0 0 0 11.000317,32 a 21,21 0 0 0 0.366407,3.830859 l -2.2640631,1.307032 c -2.686757,1.5512 -3.601981,4.964023 -2.050781,7.650781 l 1.4,2.422656 c 1.5512001,2.686758 4.9640241,3.601981 7.6507811,2.050781 l 2.258593,-1.304296 A 21,21 0 0 0 32.000317,53 21,21 0 0 0 45.622974,47.949609 l 2.275,1.3125 c 2.686757,1.5512 6.09958,0.635977 7.65078,-2.050781 l 1.4,-2.422656 c 1.5512,-2.686758 0.635977,-6.099581 -2.05078,-7.650781 L 52.633911,35.830859 A 21,21 0 0 0 53.000317,32 21,21 0 0 0 52.633911,28.169141 l 2.264063,-1.307032 c 2.686757,-1.5512 3.60198,-4.964023 2.05078,-7.650781 l -1.4,-2.422656 c -1.5512,-2.686758 -4.964023,-3.601981 -7.65078,-2.050781 L 45.63938,16.042187 A 21,21 0 0 0 39.000317,12.227734 V 9.5999998 C 39.000317,6.4975998 36.502717,4 33.400317,4 Z"
     id="path6-2" />
  <rect
     style="opacity:0.2"
     width="14"
     height="22.4"
     x="25"
     y="38.599812"
     rx="5.5999999"
     ry="5.5999999"
     id="rect4" />
  <rect
     style="fill:#e4e4e4"
     width="14"
     height="22.4"
     x="25"
     y="37.599812"
     rx="5.5999999"
     ry="5.5999999"
     id="rect8" />
  <path
     style="opacity:0.1;fill:#ffffff"
     d="m 30.599926,4 c -3.1024,0 -5.599609,2.4972098 -5.599609,5.5996098 V 10.599609 C 25.000317,7.4972098 27.497526,5 30.599926,5 h 2.800782 c 3.1024,0 5.599609,2.4972098 5.599609,5.599609 V 9.5996098 C 39.000317,6.4972098 36.503108,4 33.400708,4 Z m -5.599609,8.224609 a 21,21 0 0 0 -6.623047,3.826172 l -2.275391,-1.3125 c -2.686757,-1.5512 -6.09919,-0.635976 -7.6503901,2.050781 l -1.400391,2.421876 c -0.603356,1.045044 -0.828609,2.200037 -0.726562,3.3125 0.06974,-0.789767 0.302707,-1.578362 0.726562,-2.3125 l 1.400391,-2.421876 c 1.5512001,-2.686757 4.9636331,-3.601981 7.6503901,-2.050781 l 2.275391,1.3125 a 21,21 0 0 1 6.623047,-3.826172 z m 14,0.0039 v 1 a 21,21 0 0 1 6.638672,3.814453 l 2.259766,-1.304688 c 2.686757,-1.5512 6.09919,-0.635977 7.65039,2.050781 l 1.400391,2.421876 c 0.423855,0.734138 0.656827,1.522733 0.726562,2.3125 0.102046,-1.112463 -0.123206,-2.267456 -0.726562,-3.3125 l -1.400391,-2.421876 c -1.5512,-2.686758 -4.963633,-3.601981 -7.65039,-2.050781 l -2.259766,1.304688 A 21,21 0 0 0 39.000317,12.228516 Z M 52.767895,29.09179 52.633129,29.16992 A 21,21 0 0 1 52.974926,32.541016 21,21 0 0 0 53.000316,32 21,21 0 0 0 52.767894,29.091797 Z m -41.529297,0.0039 A 21,21 0 0 0 11.000317,32 a 21,21 0 0 0 0.02539,0.458984 21,21 0 0 1 0.341797,-3.289062 z m 41.523438,6.808594 a 21,21 0 0 1 -0.128907,0.925781 l 2.265626,1.308594 c 1.641712,0.947843 2.617034,2.590267 2.777343,4.33789 0.185479,-2.100574 -0.824725,-4.210545 -2.777343,-5.33789 z m -41.529297,0.0039 -2.1308601,1.230469 c -1.952618,1.127345 -2.962822,3.237316 -2.777343,5.33789 0.160309,-1.747623 1.135631,-3.390047 2.777343,-4.33789 l 2.2656261,-1.308594 a 21,21 0 0 1 -0.134766,-0.921875 z"
     id="path16-9" />
  <rect
     style="opacity:0.4"
     width="6"
     height="16.799999"
     x="29"
     y="40.199814"
     rx="3"
     ry="2.8"
     id="rect10" />
  <path
     style="opacity:0.2"
     d="m 38,20.367002 v 9.632812 l -6,4 -6,-4 v -9.619141 c -4.864353,2.309266 -7.993068,7.20808 -8,12.619141 0,7.731985 6.268014,14 14,14 7.731986,0 14,-6.268015 14,-14 -0.0027,-5.415462 -3.131436,-10.322092 -8,-12.632812 z"
     id="path12-3" />
  <path
     style="fill:#ffffff"
     d="m 38,19.367 v 9.632812 l -6,4 -6,-4 v -9.619141 c -4.864353,2.309266 -7.993068,7.20808 -8,12.619141 0,7.731985 6.268014,14 14,14 7.731986,0 14,-6.268015 14,-14 C 45.9973,26.58435 42.868564,21.67772 38,19.367 Z"
     id="path14-5" />
</svg>
