<?xml version="1.0" encoding="UTF-8" standalone="no"?>
<svg
   xmlns:dc="http://purl.org/dc/elements/1.1/"
   xmlns:cc="http://creativecommons.org/ns#"
   xmlns:rdf="http://www.w3.org/1999/02/22-rdf-syntax-ns#"
   xmlns:svg="http://www.w3.org/2000/svg"
   xmlns="http://www.w3.org/2000/svg"
   xmlns:sodipodi="http://sodipodi.sourceforge.net/DTD/sodipodi-0.dtd"
   xmlns:inkscape="http://www.inkscape.org/namespaces/inkscape"
   width="64"
   height="64"
   version="1"
   id="svg20"
   sodipodi:docname="spotifytools.svg"
   inkscape:version="1.0.2 (e86c870879, 2021-01-15, custom)">
  <metadata
     id="metadata26">
    <rdf:RDF>
      <cc:Work
         rdf:about="">
        <dc:format>image/svg+xml</dc:format>
        <dc:type
           rdf:resource="http://purl.org/dc/dcmitype/StillImage" />
        <dc:title />
      </cc:Work>
    </rdf:RDF>
  </metadata>
  <defs
     id="defs24" />
  <sodipodi:namedview
     pagecolor="#ffffff"
     bordercolor="#666666"
     borderopacity="1"
     objecttolerance="10"
     gridtolerance="10"
     guidetolerance="10"
     inkscape:pageopacity="0"
     inkscape:pageshadow="2"
     inkscape:window-width="1920"
     inkscape:window-height="1176"
     id="namedview22"
     showgrid="false"
     inkscape:zoom="3.5742038"
     inkscape:cx="26.991333"
     inkscape:cy="46.5263"
     inkscape:window-x="0"
     inkscape:window-y="24"
     inkscape:window-maximized="0"
     inkscape:current-layer="svg20"
     inkscape:document-rotation="0" />
  <g
     id="g890"
     transform="matrix(1,0,0,0.98245614,0,0.07017545)">
    <path
       opacity="0.2"
       d="M 4.1,32 C 4,32.3 4,32.7 4,33 4,48.5 16.5,61 32,61 47.5,61 60,48.5 60,33 60,32.7 60,32.3 59.9,32 59.4,47 47.1,59 31.9,59 16.8,59 4.6,47 4.1,32 Z"
       id="path2" />
    <path
       fill="#1ed760"
       d="m 60,32 v 0 C 60,16.5 47.5,4 32,4 V 4 C 16.5,4 4,16.5 4,32 v 0 c 0,15.5 12.5,28 28,28 v 0 C 47.5,60 60,47.5 60,32 Z"
       id="path4" />
    <path
       fill="#ffffff"
       opacity="0.2"
       d="M 32,4 C 16.5,4 4,16.5 4,32 4,32.1 4,32.2 4,32.3 4.4,17.1 16.7,5 32,5 V 5 C 47.3,5 59.6,17.1 60,32.3 60,32.2 60,32.1 60,32 60,16.5 47.5,4 32,4 Z"
       id="path6" />
    <path
       style="opacity:0.2;fill:none;stroke:#000000;stroke-width:5;stroke-linecap:round"
       d="m 15.5,24.5 c 7.5,-3 23.5,-3 34,3"
       id="path8" />
    <path
       style="fill:none;stroke:#ffffff;stroke-width:5;stroke-linecap:round"
       d="m 15.5,23.5 c 7.5,-3 23.5,-3 34,3"
       id="path10" />
    <path
       style="opacity:0.2;fill:none;stroke:#000000;stroke-width:4;stroke-linecap:round"
       d="m 17,33 c 7,-2 23,-1 29,3"
       id="path12" />
    <path
       style="fill:none;stroke:#ffffff;stroke-width:4;stroke-linecap:round"
       d="m 17,32 c 7,-2 23,-1 29,3"
       id="path14" />
    <path
       style="opacity:0.2;fill:none;stroke:#000000;stroke-width:4;stroke-linecap:round"
       d="m 18,42 c 6,-1.5 18,-1.5 25,2"
       id="path16" />
    <path
       style="fill:none;stroke:#ffffff;stroke-width:4;stroke-linecap:round"
       d="m 18,41 c 6,-1.5 18,-1.5 25,2"
       id="path18" />
  </g>
  <g
     id="g958"
     transform="matrix(1.1111111,0,0,1.1111111,-0.44444456,-6.666667)">
    <path
       style="opacity:0.2"
       d="m 25.2063,34.00136 c 0.434171,0.0074 0.866679,0.04201 1.282616,0.08292 1.974546,0.123132 0.745252,1.594269 -0.459671,1.887668 -1.973535,0.562995 -1.962489,2.803995 -0.790056,4.210788 1.072906,1.821803 2.684884,0.09098 3.936459,-0.505002 1.865896,-0.309313 0.0637,2.283181 -0.529345,2.91865 -0.888862,1.374439 -2.401672,2.03368 -3.957268,1.796575 -1.95294,-0.279565 -3.326398,1.3844 -4.615494,2.638766 -3.631548,3.38536 -7.328219,7.089611 -10.98147,10.803684 -0.537059,0.459711 -1.123548,0.983962 -1.537008,1.572145 -2.006975,1.885202 -4.999834,-1.121083 -2.757903,-3.529359 4.643388,-4.276178 9.414839,-9.199648 13.705305,-13.384657 0.702206,-0.687736 1.357879,-1.414935 1.806144,-2.310239 0.75786,-1.569695 -0.05031,-3.666708 1.354577,-4.923451 0.923818,-1.053381 2.240587,-1.280037 3.543114,-1.258493 z"
       id="path6-0" />
    <path
       style="fill:#4f4f4f;fill-opacity:1"
       d="m 25.2063,33.001364 c 0.434171,0.0074 0.866679,0.04201 1.282616,0.08292 1.974546,0.123132 0.745252,1.594268 -0.459671,1.887667 -1.973535,0.562995 -1.962489,2.803995 -0.790056,4.210788 1.072906,1.821803 2.684884,0.09098 3.936459,-0.505002 1.865896,-0.309313 0.0637,2.283181 -0.529345,2.91865 -0.888862,1.374439 -2.401672,2.03368 -3.957268,1.796575 -1.95294,-0.279565 -3.326398,1.3844 -4.615494,2.638766 -3.631548,3.38536 -7.328219,7.089611 -10.98147,10.803684 -0.537059,0.459711 -1.123548,0.983962 -1.537008,1.572145 -2.006975,1.885202 -4.999834,-1.121083 -2.757903,-3.529359 4.643388,-4.276177 9.414839,-9.199648 13.705305,-13.384657 0.702206,-0.687736 1.357879,-1.414935 1.806144,-2.310239 0.75786,-1.569695 -0.05031,-3.666708 1.354577,-4.923451 0.923818,-1.05338 2.240587,-1.280037 3.543114,-1.258492 z"
       id="path8-6" />
    <path
       style="opacity:0.2"
       d="m 13.654468,34.037854 c 1.371554,-0.181956 2.837348,0.297128 3.834264,1.328888 -0.26491,0.557904 -1.885982,0.280956 -2.470506,1.058891 -0.870482,0.749815 -2.367558,2.393311 -1.252666,3.52794 4.335219,4.238191 9.569697,9.439801 13.877273,13.712629 0.785665,0.992141 2.148024,1.650795 2.35717,3.030894 -0.256885,1.375151 -1.458827,2.358458 -2.413346,3.186367 -0.42644,0.22943 -1.009144,0.106774 -1.344282,-0.251121 C 20.529659,53.526617 16.48439,48.397647 11.25755,42.539306 10.617128,41.987081 9.518869,42.043677 9.536633,43.20068 10.25936,44.457902 8.430286,45.195873 7.85108,46.120153 7.185874,46.613299 6.726816,45.653213 6.238427,45.302185 5.51953,44.347835 4.033593,43.751633 4,42.399862 c 0.82347,-0.8221 1.506127,-2.838882 2.751813,-2.317634 1.236394,-0.570524 0.719677,-2.65359 2.034411,-3.365973 1.037577,-0.858137 2.384479,-1.055284 3.335102,-2.154665 0.474102,-0.280133 0.996446,-0.452531 1.533142,-0.523736 z"
       id="path10-2" />
    <path
       style="fill:#8e8e8e;fill-opacity:1"
       d="m 13.654468,33.037858 c 1.371554,-0.181957 2.837348,0.297128 3.834264,1.328887 -0.26491,0.557904 -1.885982,0.280956 -2.470506,1.058891 -0.870482,0.749815 -2.367558,2.393311 -1.252666,3.52794 4.335219,4.238191 9.569697,9.439801 13.877273,13.712629 0.785665,0.992141 2.148024,1.650795 2.35717,3.030894 -0.256885,1.375151 -1.458827,2.358458 -2.413346,3.186367 -0.42644,0.22943 -1.009144,0.106774 -1.344282,-0.251121 C 20.529659,52.52662 16.48439,47.39765 11.25755,41.539309 10.617128,40.987084 9.518869,41.04368 9.536633,42.200684 10.25936,43.457905 8.430286,44.195876 7.85108,45.120156 7.185874,45.613302 6.726816,44.653216 6.238427,44.302188 5.51953,43.347838 4.033593,42.751636 4,41.399865 c 0.82347,-0.8221 1.506127,-2.838882 2.751813,-2.317634 1.236394,-0.570524 0.719677,-2.65359 2.034411,-3.365973 1.037577,-0.858137 2.384479,-1.055284 3.335102,-2.154664 0.474102,-0.280133 0.996446,-0.452531 1.533142,-0.523736 z"
       id="path12-6" />
  </g>
</svg>
